<svg width="234" height="48" viewBox="0 0 234 48" fill="none" xmlns="http://www.w3.org/2000/svg">
<path fill-rule="evenodd" clip-rule="evenodd" d="M23.4529 26.1468C23.6646 28.3773 23.7766 29.536 21.9696 31.4424C18.5139 34.6856 14.687 37.5087 10.5693 39.8531C8.37413 41.1405 6.08287 42.2568 3.71616 43.1925C2.18297 43.7531 0.874891 43.99 0.239713 42.8685C0.0815267 42.5642 0 42.2266 0 41.8841C0 41.5416 0.0815267 41.2041 0.239713 40.8997C1.92135 36.3518 6.7436 27.8788 9.89637 22.359C10.22 21.7982 10.5437 21.2126 10.8929 20.627C15.7274 12.2661 22.1071 2.03632 23.3531 0.391639C23.5405 0.154816 23.8764 -0.119273 24.1757 0.0551889C24.2159 0.0842404 24.2512 0.117855 24.2828 0.155272C24.329 0.21079 24.3655 0.274521 24.3899 0.343727C24.43 0.459629 24.4337 0.585114 24.3996 0.703145L24.3351 0.961111L24.2877 1.16417C22.2069 9.61209 22.4308 17.8982 23.3909 26.1468H23.4529ZM30.5299 28.7511C28.4991 27.8291 27.4404 27.3431 26.6921 24.8261C25.6079 20.2123 25.0762 15.4857 25.1102 10.7462C25.0968 9.30925 25.1467 7.8731 25.2599 6.44182C25.3463 5.33953 25.4716 4.24013 25.6335 3.14545C25.9328 1.52556 26.3684 0.27954 27.6643 0.27954C28.0062 0.297336 28.3384 0.397267 28.6329 0.570816C28.9286 0.744365 29.1768 0.98636 29.3593 1.27642C32.461 5.01449 37.3952 13.4251 40.5735 18.9075L41.5701 20.627C46.3923 29.0004 52.0359 39.6913 52.7843 41.5977C52.8962 41.8718 52.9705 42.3079 52.6589 42.4823C52.5993 42.5064 52.536 42.5208 52.4728 42.5257C52.4156 42.5299 52.3584 42.5264 52.3024 42.5149C52.2355 42.5012 52.171 42.4764 52.1126 42.442C52.0664 42.4154 52.0238 42.383 51.986 42.3453L51.6502 42.0213C45.4201 35.9906 38.0937 32.0531 30.4679 28.7511H30.5299ZM24.8815 33.4742L24.7367 33.5732C18.0697 38.5449 11.0183 42.8685 2.65753 45.2982L2.20852 45.4229C2.08684 45.4509 1.97611 45.5165 1.89337 45.6103C1.81062 45.7043 1.75952 45.8217 1.74735 45.9462C1.74735 46.2951 2.15863 46.482 2.45797 46.482C4.501 46.7561 16.5755 47.2171 26.2443 47.2171H28.2374L28.4187 47.2162C34.7778 47.1786 44.3943 47.1222 49.1204 46.3076C49.4636 46.294 49.7982 46.1974 50.0963 46.0259C50.3932 45.8544 50.6451 45.6134 50.8276 45.3231C51.4762 44.2142 50.6159 43.205 49.3699 42.1459C48.6885 41.6056 47.9925 41.0837 47.2831 40.5807C45.9166 39.6106 44.5002 38.7106 43.04 37.8844C38.9552 35.49 34.6014 33.5869 30.07 32.215C27.5828 31.6209 26.6081 32.2895 24.8815 33.4742Z" fill="#00ADEE"/>
<path d="M66.5193 19.5041H82.7157V22.867H76.5338V38.0001H72.7011V22.867H66.5193V19.5041Z" fill="white"/>
<path d="M86.2099 19.5041H93.9496C97.2877 19.5041 99.711 21.1608 99.711 24.6473C99.711 26.403 98.9445 27.5899 97.9059 28.2822C99.3154 28.8262 100.478 30.2851 100.478 32.6095C100.478 36.1455 98.0048 38.0001 94.4936 38.0001H86.2099V19.5041ZM93.5045 22.867H90.0179V26.9222H93.7023C94.9881 26.9222 95.8288 26.3288 95.8288 24.9193C95.8288 23.5099 94.8892 22.867 93.5045 22.867ZM94.0979 30.1615H90.0179V34.6124H94.0485C95.5321 34.6124 96.5707 33.9695 96.5707 32.4117C96.5707 30.8291 95.5074 30.1615 94.0979 30.1615Z" fill="white"/>
<path d="M113.101 38.2721C107.71 38.2721 103.704 34.6866 103.704 28.7521C103.704 22.8175 107.735 19.2321 113.101 19.2321C117.502 19.2321 121.137 21.9026 121.805 26.3288L117.898 26.6502C117.329 24.0044 115.45 22.6197 112.977 22.6197C109.812 22.6197 107.587 24.9935 107.587 28.7521C107.587 32.7084 109.936 34.8844 112.977 34.8844C115.475 34.8844 117.304 33.5244 117.898 30.9528L121.78 31.2495C120.964 35.6757 117.527 38.2721 113.101 38.2721Z" fill="white"/>
<path d="M128.392 38.0001H124.312L128.318 31.4968L124.362 25.2161H128.442L130.84 29.1724L133.264 25.2161H137.319L133.338 31.571L137.418 38.0001H133.313L130.84 33.9695L128.392 38.0001Z" fill="white"/>
<path d="M147.935 19.5041H155.18C160.25 19.5041 164.058 22.9164 164.058 28.7521C164.058 34.5877 160.175 38.0001 155.131 38.0001H147.935V19.5041ZM155.18 21.4328H150.186V36.0713H155.131C159.013 36.0713 161.807 33.5244 161.807 28.7521C161.807 23.9797 159.063 21.4328 155.18 21.4328Z" fill="white"/>
<path d="M179.785 31.3484V32.5106H170.043C170.166 34.9339 171.773 36.3928 173.999 36.3928C175.853 36.3928 177.115 35.5521 177.51 34.1426L179.661 34.2662C179.142 36.5411 176.966 38.2473 174.048 38.2473C170.438 38.2473 167.792 35.7993 167.792 31.6946C167.792 27.5899 170.413 25.1666 173.999 25.1666C177.609 25.1666 179.785 27.6146 179.785 31.3484ZM173.974 27.0211C171.798 27.0211 170.191 28.3317 170.043 30.8044H177.659C177.634 28.579 176.397 27.0211 173.974 27.0211Z" fill="white"/>
<path d="M188.29 25.1913C191.109 25.1666 192.667 26.7986 192.914 28.9746L190.788 29.0982C190.664 27.8371 189.823 27.0211 188.241 27.0211C186.609 27.0211 185.818 27.7382 185.818 28.851C185.818 30.1862 187.029 30.2851 188.81 30.7055C191.505 31.3484 193.186 32.0902 193.186 34.3404C193.186 36.8379 191.332 38.2473 188.414 38.2473C185.57 38.2473 183.74 36.8379 183.444 34.4146L185.546 34.2662C185.768 35.651 186.782 36.3928 188.463 36.3928C189.972 36.3928 191.084 35.7746 191.084 34.5135C191.084 33.2277 190.219 32.931 187.944 32.387C185.496 31.8182 183.691 31.3484 183.691 28.8757C183.691 26.675 185.323 25.1666 188.29 25.1913Z" fill="white"/>
<path d="M198.853 19.4299C199.619 19.4299 200.262 20.0481 200.262 20.8393C200.262 21.6059 199.619 22.2241 198.853 22.2241C198.062 22.2241 197.443 21.6059 197.443 20.8393C197.443 20.0481 198.086 19.4299 198.853 19.4299ZM197.765 25.3891H199.916V38.0001H197.765V25.3891Z" fill="white"/>
<path d="M210.991 44.5281C207.455 44.5281 205.378 42.6735 204.883 40.0524L207.01 39.9782C207.307 41.6844 208.914 42.6982 210.917 42.6982C213.266 42.6982 214.898 41.363 214.898 38.8655V36.1208C214.206 37.3324 212.673 38.2473 210.546 38.2473C207.084 38.2473 204.463 35.7746 204.463 31.6946C204.463 27.6393 207.084 25.1666 210.546 25.1666C212.722 25.1666 214.305 26.1557 214.997 27.4662V25.3891H217.025V38.7171C217.025 42.3273 214.601 44.5281 210.991 44.5281ZM210.843 36.3928C213.167 36.3928 214.898 34.9339 214.898 32.0902V31.3484C214.898 28.4801 213.167 27.0211 210.843 27.0211C208.444 27.0211 206.614 28.6779 206.614 31.7193C206.614 34.7361 208.444 36.3928 210.843 36.3928Z" fill="white"/>
<path d="M228.268 25.1666C231.112 25.1666 233.139 27.1695 233.139 30.3346V38.0001H231.013V30.6066C231.013 28.5048 229.727 27.1448 227.823 27.1448C225.82 27.1448 224.46 28.7026 224.46 30.6313V38.0001H222.309V25.3891H224.336V27.2931C224.954 26.1557 226.265 25.1666 228.268 25.1666Z" fill="white"/>
</svg>
