<svg width="254" height="48" viewBox="0 0 254 48" fill="none" xmlns="http://www.w3.org/2000/svg">
<path fill-rule="evenodd" clip-rule="evenodd" d="M23.4529 26.1468C23.6646 28.3773 23.7766 29.536 21.9696 31.4424C18.5139 34.6856 14.687 37.5087 10.5693 39.8531C8.37413 41.1405 6.08287 42.2568 3.71616 43.1925C2.18297 43.7531 0.874891 43.99 0.239713 42.8685C0.0815267 42.5642 0 42.2266 0 41.8841C0 41.5416 0.0815267 41.2041 0.239713 40.8997C1.92135 36.3518 6.7436 27.8788 9.89637 22.359C10.22 21.7982 10.5437 21.2126 10.8929 20.627C15.7274 12.2661 22.1071 2.03632 23.3531 0.391639C23.5405 0.154816 23.8764 -0.119273 24.1757 0.0551889C24.2159 0.0842404 24.2512 0.117855 24.2828 0.155272C24.329 0.21079 24.3655 0.274521 24.3899 0.343727C24.43 0.459629 24.4337 0.585114 24.3996 0.703145L24.3351 0.961111L24.2877 1.16417C22.2069 9.61209 22.4308 17.8982 23.3909 26.1468H23.4529ZM30.5299 28.7511C28.4991 27.8291 27.4404 27.3431 26.6921 24.8261C25.6079 20.2123 25.0762 15.4857 25.1102 10.7462C25.0968 9.30925 25.1467 7.8731 25.2599 6.44182C25.3463 5.33953 25.4716 4.24013 25.6335 3.14545C25.9328 1.52556 26.3684 0.27954 27.6643 0.27954C28.0062 0.297336 28.3384 0.397267 28.6329 0.570816C28.9286 0.744365 29.1768 0.98636 29.3593 1.27642C32.461 5.01449 37.3952 13.4251 40.5735 18.9075L41.5701 20.627C46.3923 29.0004 52.0359 39.6913 52.7843 41.5977C52.8962 41.8718 52.9705 42.3079 52.6589 42.4823C52.5993 42.5064 52.536 42.5208 52.4728 42.5257C52.4156 42.5299 52.3584 42.5264 52.3024 42.5149C52.2355 42.5012 52.171 42.4764 52.1126 42.442C52.0664 42.4154 52.0238 42.383 51.986 42.3453L51.6502 42.0213C45.4201 35.9906 38.0937 32.0531 30.4679 28.7511H30.5299ZM24.8815 33.4742L24.7367 33.5732C18.0697 38.5449 11.0183 42.8685 2.65753 45.2982L2.20852 45.4229C2.08684 45.4509 1.97611 45.5165 1.89337 45.6103C1.81062 45.7043 1.75952 45.8217 1.74735 45.9462C1.74735 46.2951 2.15863 46.482 2.45797 46.482C4.501 46.7561 16.5755 47.2171 26.2443 47.2171H28.2374L28.4187 47.2162C34.7778 47.1786 44.3943 47.1222 49.1204 46.3076C49.4636 46.294 49.7982 46.1974 50.0963 46.0259C50.3932 45.8544 50.6451 45.6134 50.8276 45.3231C51.4762 44.2142 50.6159 43.205 49.3699 42.1459C48.6885 41.6056 47.9925 41.0837 47.2831 40.5807C45.9166 39.6106 44.5002 38.7106 43.04 37.8844C38.9552 35.49 34.6014 33.5869 30.07 32.215C27.5828 31.6209 26.6081 32.2895 24.8815 33.4742Z" fill="#00ADEE"/>
<path d="M66.5193 17.9546H84.7434V21.7386H77.7877V38.7663H73.4751V21.7386H66.5193V17.9546Z" fill="white"/>
<path d="M88.6752 17.9546H97.3838C101.14 17.9546 103.867 19.8188 103.867 23.7418C103.867 25.7173 103.004 27.0528 101.836 27.8318C103.421 28.4439 104.729 30.0855 104.729 32.7009C104.729 36.6796 101.947 38.7663 97.9959 38.7663H88.6752V17.9546ZM96.883 21.7386H92.96V26.3016H97.1056C98.5524 26.3016 99.4984 25.6338 99.4984 24.0479C99.4984 22.462 98.4411 21.7386 96.883 21.7386ZM97.5508 29.9464H92.96V34.9545H97.4951C99.1645 34.9545 100.333 34.2311 100.333 32.4783C100.333 30.6976 99.1367 29.9464 97.5508 29.9464Z" fill="white"/>
<path d="M118.933 39.0724C112.867 39.0724 108.36 35.038 108.36 28.3605C108.36 21.6829 112.895 17.6486 118.933 17.6486C123.885 17.6486 127.975 20.6535 128.727 25.6338L124.331 25.9955C123.691 23.0184 121.576 21.4603 118.794 21.4603C115.232 21.4603 112.728 24.1313 112.728 28.3605C112.728 32.8122 115.371 35.2606 118.794 35.2606C121.604 35.2606 123.663 33.7303 124.331 30.8367L128.699 31.1706C127.781 36.1509 123.913 39.0724 118.933 39.0724Z" fill="white"/>
<path d="M136.139 38.7663H131.548L136.055 31.4488L131.604 24.3818H136.194L138.893 28.8335L141.62 24.3818H146.183L141.703 31.5323L146.294 38.7663H141.676L138.893 34.2311L136.139 38.7663Z" fill="white"/>
<path d="M158.129 17.9546H166.281C171.985 17.9546 176.269 21.7942 176.269 28.3605C176.269 34.9267 171.901 38.7663 166.225 38.7663H158.129V17.9546ZM166.281 20.1248H160.661V36.5961H166.225C170.593 36.5961 173.737 33.7303 173.737 28.3605C173.737 22.9906 170.649 20.1248 166.281 20.1248Z" fill="white"/>
<path d="M193.966 31.2819V32.5896H183.004C183.143 35.3162 184.951 36.9578 187.455 36.9578C189.542 36.9578 190.961 36.0118 191.406 34.4259L193.827 34.565C193.243 37.1247 190.794 39.0445 187.511 39.0445C183.449 39.0445 180.472 36.2901 180.472 31.6714C180.472 27.0528 183.421 24.3261 187.455 24.3261C191.518 24.3261 193.966 27.0806 193.966 31.2819ZM187.428 26.4128C184.979 26.4128 183.171 27.8875 183.004 30.6698H191.573C191.545 28.1657 190.154 26.4128 187.428 26.4128Z" fill="white"/>
<path d="M203.536 24.3539C206.708 24.3261 208.461 26.1624 208.739 28.6109L206.346 28.75C206.207 27.331 205.261 26.4128 203.48 26.4128C201.644 26.4128 200.754 27.2197 200.754 28.4718C200.754 29.9742 202.117 30.0855 204.12 30.5585C207.153 31.2819 209.045 32.1166 209.045 34.6485C209.045 37.4586 206.958 39.0445 203.675 39.0445C200.475 39.0445 198.417 37.4586 198.083 34.732L200.448 34.565C200.698 36.1231 201.839 36.9578 203.731 36.9578C205.428 36.9578 206.68 36.2622 206.68 34.8433C206.68 33.3965 205.706 33.0626 203.146 32.4505C200.392 31.8105 198.361 31.2819 198.361 28.4996C198.361 26.0233 200.197 24.3261 203.536 24.3539Z" fill="white"/>
<path d="M215.421 17.8711C216.284 17.8711 217.007 18.5667 217.007 19.4571C217.007 20.3196 216.284 21.0152 215.421 21.0152C214.531 21.0152 213.835 20.3196 213.835 19.4571C213.835 18.5667 214.559 17.8711 215.421 17.8711ZM214.197 24.5765H216.617V38.7663H214.197V24.5765Z" fill="white"/>
<path d="M229.079 46.1116C225.1 46.1116 222.763 44.0249 222.207 41.0756L224.599 40.9922C224.933 42.912 226.742 44.0527 228.996 44.0527C231.639 44.0527 233.475 42.5503 233.475 39.7401V36.6518C232.696 38.0151 230.971 39.0445 228.578 39.0445C224.683 39.0445 221.734 36.2622 221.734 31.6714C221.734 27.1084 224.683 24.3261 228.578 24.3261C231.027 24.3261 232.807 25.439 233.586 26.9137V24.5765H235.868V39.5732C235.868 43.6354 233.141 46.1116 229.079 46.1116ZM228.912 36.9578C231.527 36.9578 233.475 35.3162 233.475 32.1166V31.2819C233.475 28.0544 231.527 26.4128 228.912 26.4128C226.213 26.4128 224.154 28.277 224.154 31.6992C224.154 35.0937 226.213 36.9578 228.912 36.9578Z" fill="white"/>
<path d="M248.519 24.3261C251.719 24.3261 254 26.5798 254 30.1411V38.7663H251.607V30.4472C251.607 28.0822 250.16 26.552 248.018 26.552C245.764 26.552 244.234 28.3048 244.234 30.475V38.7663H241.813V24.5765H244.095V26.7189C244.791 25.439 246.265 24.3261 248.519 24.3261Z" fill="white"/>
</svg>
